# xmcd
#
# Track frame offsets:
# 150
# 2440
# 6245
# 24620
# 47917
# 70852
# 84307
# 104210
# 119477
#
# Disc length: 1827 seconds
#
#
# Revision: 0
# Processed by: cddbd v1.5.2PL0 Copyright (c) Steve Scherf et al.
# Submitted via: FreeRIP 2.944 
#
DISCID=70072109
DTITLE=Rainer Pappon - The Blurps
DYEAR=1998
DGENRE=Blues
TTITLE0=GOOD EVENING
TTITLE1=GOOD MORNING
TTITLE2=PIT OF METEOR TEMPEST
TTITLE3=SPACEDOPE
TTITLE4=THE BLURPS
TTITLE5=I´M A SUITCASE
TTITLE6=DECEPTION
TTITLE7=SIR JOAQUIM
TTITLE8=I´M LAID BACK
EXTD=Year: 1998
EXTT0=
EXTT1=
EXTT2=
EXTT3=
EXTT4=
EXTT5=
EXTT6=
EXTT7=
EXTT8=
PLAYORDER=
